<svg width="425" height="28" viewBox="0 0 425 28" fill="none" xmlns="http://www.w3.org/2000/svg">
<path d="M39.664 3.024C40.168 3.024 40.552 3.108 40.816 3.276C41.104 3.42 41.248 3.636 41.248 3.924C41.248 4.044 41.212 4.2 41.14 4.392C41.068 4.608 40.96 4.776 40.816 4.896C40.696 4.992 40.504 5.124 40.24 5.292C39.856 5.508 39.544 5.748 39.304 6.012C39.088 6.276 38.896 6.684 38.728 7.236L34.336 22.716C34.24 23.028 34.192 23.328 34.192 23.616C34.192 23.88 34.228 24.108 34.3 24.3C34.396 24.468 34.516 24.672 34.66 24.912C34.756 25.032 34.84 25.164 34.912 25.308C34.984 25.428 35.02 25.56 35.02 25.704C35.02 25.752 34.996 25.872 34.948 26.064C34.852 26.376 34.624 26.604 34.264 26.748C33.928 26.892 33.436 26.964 32.788 26.964H24.328C23.824 26.964 23.428 26.88 23.14 26.712C22.876 26.544 22.744 26.316 22.744 26.028C22.744 25.884 22.78 25.728 22.852 25.56C22.924 25.392 23.02 25.248 23.14 25.128C23.284 24.984 23.404 24.888 23.5 24.84C23.62 24.768 23.704 24.708 23.752 24.66C24.136 24.444 24.448 24.204 24.688 23.94C24.928 23.676 25.132 23.268 25.3 22.716L28.036 12.996L18.712 24.552C17.944 25.488 17.32 26.136 16.84 26.496C16.384 26.832 15.856 27 15.256 27C14.68 27 14.224 26.82 13.888 26.46C13.576 26.076 13.288 25.44 13.024 24.552L9.64 13.428L6.976 22.752C6.88 23.064 6.832 23.364 6.832 23.652C6.832 23.94 6.868 24.18 6.94 24.372C7.036 24.564 7.168 24.768 7.336 24.984C7.552 25.296 7.66 25.548 7.66 25.74C7.66 25.788 7.636 25.908 7.588 26.1C7.492 26.436 7.276 26.676 6.94 26.82C6.604 26.94 6.1 27 5.428 27H2.44C1.936 27 1.54 26.916 1.252 26.748C0.988 26.58 0.856 26.352 0.856 26.064C0.856 25.92 0.892 25.764 0.964 25.596C1.06 25.332 1.216 25.128 1.432 24.984C1.648 24.84 1.78 24.756 1.828 24.732C2.212 24.492 2.524 24.252 2.764 24.012C3.004 23.748 3.208 23.328 3.376 22.752L7.768 7.2L7.192 5.292C7.072 4.932 7.012 4.584 7.012 4.248C7.012 3.816 7.144 3.504 7.408 3.312C7.696 3.12 8.128 3.024 8.704 3.024H14.284C15.004 3.024 15.532 3.18 15.868 3.492C16.228 3.804 16.516 4.344 16.732 5.112L20.332 17.064L30.088 4.932C30.712 4.164 31.324 3.66 31.924 3.42C32.524 3.156 33.316 3.024 34.3 3.024H39.664ZM51.2976 7.956C54.5616 7.956 56.9616 8.616 58.4976 9.936C60.0576 11.256 60.8376 12.984 60.8376 15.12C60.8376 15.84 60.7416 16.644 60.5496 17.532C60.0936 19.5 59.2416 21.228 57.9936 22.716C56.7456 24.18 55.2096 25.32 53.3856 26.136C51.5856 26.928 49.6296 27.324 47.5176 27.324C44.1816 27.324 41.7096 26.664 40.1016 25.344C38.5176 24 37.7256 22.224 37.7256 20.016C37.7256 19.272 37.8216 18.444 38.0136 17.532C38.4696 15.66 39.3336 14.004 40.6056 12.564C41.9016 11.1 43.4736 9.972 45.3216 9.18C47.1936 8.364 49.1856 7.956 51.2976 7.956ZM51.1896 11.16C50.6856 11.16 50.1456 11.616 49.5696 12.528C49.0176 13.416 48.3576 15.108 47.5896 17.604C46.8216 20.1 46.4376 21.852 46.4376 22.86C46.4376 23.388 46.5216 23.748 46.6896 23.94C46.8576 24.108 47.0856 24.192 47.3736 24.192C47.8776 24.24 48.3936 23.808 48.9216 22.896C49.4736 21.984 50.1576 20.208 50.9736 17.568C51.7176 15.24 52.0896 13.548 52.0896 12.492C52.0896 11.988 52.0056 11.64 51.8376 11.448C51.6936 11.256 51.4776 11.16 51.1896 11.16ZM71.9346 7.632C73.9266 7.632 75.6426 7.812 77.0826 8.172C78.5466 8.532 79.6626 9.036 80.4306 9.684C81.2226 10.332 81.6186 11.064 81.6186 11.88C81.6186 12.72 81.2826 13.404 80.6106 13.932C79.9626 14.46 79.0506 14.724 77.8746 14.724C76.6746 14.724 75.6546 14.424 74.8146 13.824C73.9986 13.224 73.5906 12.468 73.5906 11.556C73.5906 11.244 73.6386 10.944 73.7346 10.656C73.3026 10.536 72.9186 10.476 72.5826 10.476C71.9826 10.476 71.4786 10.62 71.0706 10.908C70.6866 11.196 70.5066 11.604 70.5306 12.132C70.5306 12.756 70.8426 13.284 71.4666 13.716C72.0906 14.148 73.0986 14.688 74.4906 15.336C75.6906 15.864 76.6746 16.356 77.4426 16.812C78.2346 17.244 78.8946 17.796 79.4226 18.468C79.9746 19.14 80.2506 19.932 80.2506 20.844C80.2506 21.036 80.2026 21.396 80.1066 21.924C79.7226 23.532 78.6546 24.804 76.9026 25.74C75.1506 26.676 72.8466 27.144 69.9906 27.144C66.7746 27.144 64.2186 26.712 62.3226 25.848C60.4506 24.984 59.5146 23.796 59.5146 22.284C59.5146 21.252 59.8266 20.472 60.4506 19.944C61.0746 19.416 61.9026 19.152 62.9346 19.152C64.1346 19.152 65.1546 19.524 65.9946 20.268C66.8586 21.012 67.2906 21.96 67.2906 23.112C67.2906 23.424 67.2546 23.748 67.1826 24.084C67.7586 24.228 68.3106 24.3 68.8386 24.3C69.4626 24.3 69.9786 24.132 70.3866 23.796C70.7946 23.46 70.9986 22.992 70.9986 22.392C70.9746 21.84 70.6986 21.372 70.1706 20.988C69.6426 20.58 68.8026 20.1 67.6506 19.548C66.5706 19.044 65.6826 18.576 64.9866 18.144C64.2906 17.688 63.6906 17.124 63.1866 16.452C62.7066 15.78 62.4666 14.988 62.4666 14.076C62.4666 12.108 63.2826 10.548 64.9146 9.396C66.5706 8.22 68.9106 7.632 71.9346 7.632ZM96.6225 8.424C97.0785 8.424 97.4265 8.52 97.6665 8.712C97.9305 8.904 98.0625 9.168 98.0625 9.504C98.0625 9.6 98.0385 9.768 97.9905 10.008C97.6785 11.064 96.9585 11.592 95.8305 11.592H93.7425L91.0425 20.484C90.9225 20.844 90.8625 21.216 90.8625 21.6C90.8625 22.032 90.9825 22.332 91.2225 22.5C91.4625 22.668 91.7985 22.752 92.2305 22.752C92.6145 22.752 93.0945 22.704 93.6705 22.608C93.9585 22.536 94.2105 22.5 94.4265 22.5C94.5945 22.5 94.7145 22.56 94.7865 22.68C94.8825 22.776 94.9305 22.908 94.9305 23.076C94.9545 23.556 94.5945 24.144 93.8505 24.84C93.1305 25.512 92.1465 26.1 90.8985 26.604C89.6505 27.084 88.2705 27.324 86.7585 27.324C85.1265 27.324 83.8185 26.952 82.8345 26.208C81.8505 25.464 81.3585 24.444 81.3585 23.148C81.3585 22.548 81.4545 21.972 81.6465 21.42L83.9505 14.292C84.0705 13.884 84.1305 13.56 84.1305 13.32C84.1305 12.84 84.0105 12.432 83.7705 12.096C83.5545 11.76 83.2425 11.412 82.8345 11.052C82.4745 10.716 82.2225 10.44 82.0785 10.224C81.9345 9.984 81.8985 9.708 81.9705 9.396C82.0665 9.084 82.2705 8.844 82.5825 8.676C82.8945 8.508 83.3865 8.424 84.0585 8.424H86.0745L88.3425 6.156C89.1345 5.364 89.8545 4.812 90.5025 4.5C91.1745 4.188 92.0385 4.032 93.0945 4.032C94.6065 4.032 95.3625 4.608 95.3625 5.76C95.3625 6.12 95.3145 6.456 95.2185 6.768L94.7145 8.424H96.6225ZM124.914 3.024C125.802 3.024 126.486 3.216 126.966 3.6C127.47 3.984 127.722 4.512 127.722 5.184C127.722 5.52 127.674 5.844 127.578 6.156L126.642 9.504C126.474 10.152 126.222 10.608 125.886 10.872C125.574 11.112 125.118 11.232 124.518 11.232C123.942 11.232 123.486 11.112 123.15 10.872C122.838 10.608 122.598 10.188 122.43 9.612L121.854 7.56C121.734 7.128 121.59 6.84 121.422 6.696C121.254 6.552 120.93 6.48 120.45 6.48H116.67L114.87 12.888H116.454C116.622 12.888 116.85 12.768 117.138 12.528L118.362 11.448C118.722 11.136 119.034 10.908 119.298 10.764C119.562 10.62 119.886 10.548 120.27 10.548C120.702 10.548 121.05 10.668 121.314 10.908C121.602 11.124 121.746 11.412 121.746 11.772C121.746 11.868 121.722 12.012 121.674 12.204L120.198 17.208C120.054 17.736 119.802 18.132 119.442 18.396C119.106 18.636 118.734 18.756 118.326 18.756C117.654 18.756 117.15 18.408 116.814 17.712L116.202 16.452C116.034 16.092 115.77 15.912 115.41 15.912H114.006L111.882 23.544H115.05C115.506 23.544 115.902 23.46 116.238 23.292C116.598 23.1 116.982 22.776 117.39 22.32L119.55 19.944C119.934 19.536 120.294 19.248 120.63 19.08C120.99 18.888 121.422 18.792 121.926 18.792C122.454 18.792 122.886 18.912 123.222 19.152C123.558 19.392 123.726 19.752 123.726 20.232C123.726 20.424 123.69 20.652 123.618 20.916L122.574 24.552C122.31 25.464 121.926 26.1 121.422 26.46C120.918 26.82 120.186 27 119.226 27H102.054C101.55 27 101.166 26.916 100.902 26.748C100.614 26.58 100.47 26.352 100.47 26.064C100.47 25.92 100.506 25.764 100.578 25.596C100.674 25.332 100.83 25.128 101.046 24.984C101.262 24.84 101.394 24.756 101.442 24.732C101.826 24.492 102.138 24.252 102.378 24.012C102.618 23.748 102.822 23.328 102.99 22.752L107.418 7.236C107.514 6.924 107.562 6.636 107.562 6.372C107.562 6.084 107.514 5.844 107.418 5.652C107.346 5.46 107.226 5.256 107.058 5.04C106.842 4.728 106.734 4.476 106.734 4.284C106.734 4.212 106.758 4.08 106.806 3.888C106.902 3.576 107.118 3.36 107.454 3.24C107.79 3.096 108.282 3.024 108.93 3.024H124.914ZM143.631 7.956C144.639 7.956 145.467 8.304 146.115 9C146.763 9.672 147.087 10.512 147.087 11.52C147.087 11.976 147.015 12.444 146.871 12.924C146.607 13.74 146.211 14.352 145.683 14.76C145.179 15.168 144.603 15.372 143.955 15.372C143.187 15.372 142.443 15.12 141.723 14.616L139.923 16.308C140.523 17.94 141.015 19.152 141.399 19.944C141.783 20.736 142.095 21.252 142.335 21.492C142.575 21.708 142.851 21.816 143.163 21.816C143.331 21.816 143.547 21.756 143.811 21.636C144.075 21.492 144.279 21.42 144.423 21.42C144.567 21.42 144.687 21.492 144.783 21.636C144.879 21.756 144.927 21.924 144.927 22.14C144.927 22.26 144.903 22.44 144.855 22.68C144.663 23.496 144.255 24.24 143.631 24.912C143.007 25.584 142.263 26.124 141.399 26.532C140.535 26.916 139.659 27.108 138.771 27.108C137.883 27.108 137.115 27 136.467 26.784C135.819 26.544 135.159 26.028 134.487 25.236C133.815 24.444 133.131 23.256 132.435 21.672L131.535 23.688C130.959 24.96 130.371 25.86 129.771 26.388C129.195 26.892 128.511 27.144 127.719 27.144C126.663 27.144 125.799 26.808 125.127 26.136C124.455 25.464 124.119 24.612 124.119 23.58C124.119 23.1 124.191 22.632 124.335 22.176C124.599 21.36 124.983 20.748 125.487 20.34C126.015 19.932 126.603 19.728 127.251 19.728C128.019 19.728 128.763 19.98 129.483 20.484L131.283 18.792C130.707 17.16 130.239 15.948 129.879 15.156C129.519 14.34 129.207 13.824 128.943 13.608C128.703 13.368 128.427 13.248 128.115 13.248C127.947 13.248 127.731 13.32 127.467 13.464C127.227 13.584 127.035 13.644 126.891 13.644C126.531 13.644 126.351 13.392 126.351 12.888C126.351 12.816 126.375 12.66 126.423 12.42C126.735 11.172 127.491 10.116 128.691 9.252C129.891 8.388 131.175 7.956 132.543 7.956C133.407 7.956 134.163 8.088 134.811 8.352C135.483 8.616 136.143 9.144 136.791 9.936C137.463 10.728 138.135 11.88 138.807 13.392L139.815 11.124C140.343 9.972 140.895 9.156 141.471 8.676C142.047 8.196 142.767 7.956 143.631 7.956ZM158.342 7.776C159.806 7.776 161.09 7.992 162.194 8.424C163.298 8.832 164.15 9.408 164.75 10.152C165.374 10.872 165.686 11.676 165.686 12.564C165.686 13.524 165.35 14.316 164.678 14.94C164.03 15.564 163.142 15.876 162.014 15.876C160.862 15.876 159.962 15.588 159.314 15.012C158.666 14.412 158.342 13.608 158.342 12.6C158.342 12.12 158.414 11.616 158.558 11.088C157.55 11.352 156.65 11.88 155.858 12.672C155.09 13.44 154.574 14.46 154.31 15.732C154.166 16.452 154.094 17.1 154.094 17.676C154.094 18.972 154.454 19.956 155.174 20.628C155.894 21.3 156.926 21.636 158.27 21.636C159.038 21.636 159.698 21.564 160.25 21.42C160.802 21.252 161.366 21.036 161.942 20.772C162.422 20.532 162.77 20.412 162.986 20.412C163.13 20.412 163.226 20.448 163.274 20.52C163.322 20.568 163.346 20.688 163.346 20.88C163.37 21.768 162.998 22.704 162.23 23.688C161.486 24.648 160.442 25.464 159.098 26.136C157.778 26.784 156.29 27.108 154.634 27.108C152.906 27.108 151.37 26.796 150.026 26.172C148.706 25.524 147.674 24.612 146.93 23.436C146.21 22.236 145.85 20.844 145.85 19.26C145.85 18.516 145.946 17.688 146.138 16.776C146.786 13.8 148.214 11.556 150.422 10.044C152.654 8.532 155.294 7.776 158.342 7.776ZM175.37 0.395999C176.762 0.395999 177.782 0.659999 178.43 1.188C179.102 1.716 179.438 2.436 179.438 3.348C179.438 3.876 179.354 4.392 179.186 4.896L173.534 23.256C173.462 23.544 173.426 23.796 173.426 24.012C173.426 24.324 173.486 24.576 173.606 24.768C173.726 24.936 173.894 25.104 174.11 25.272C174.278 25.44 174.398 25.584 174.47 25.704C174.542 25.8 174.554 25.932 174.506 26.1C174.386 26.412 174.146 26.64 173.786 26.784C173.426 26.928 172.874 27 172.13 27H163.922C163.298 27 162.842 26.904 162.554 26.712C162.266 26.496 162.17 26.22 162.266 25.884C162.362 25.596 162.614 25.344 163.022 25.128C163.382 24.936 163.682 24.708 163.922 24.444C164.162 24.18 164.366 23.76 164.534 23.184L170.006 5.22C170.078 5.004 170.114 4.824 170.114 4.68C170.114 4.416 170.042 4.2 169.898 4.032C169.778 3.864 169.61 3.696 169.394 3.528C169.154 3.336 168.974 3.168 168.854 3.024C168.758 2.88 168.746 2.688 168.818 2.448C168.962 1.896 169.718 1.416 171.086 1.008C172.454 0.599999 173.882 0.395999 175.37 0.395999ZM197.554 22.032C197.506 22.224 197.482 22.368 197.482 22.464C197.482 22.632 197.518 22.764 197.59 22.86C197.686 22.956 197.806 23.004 197.95 23.004C198.238 23.004 198.478 22.884 198.67 22.644C198.886 22.38 199.03 22.248 199.102 22.248C199.222 22.248 199.318 22.332 199.39 22.5C199.486 22.644 199.534 22.824 199.534 23.04C199.558 23.712 199.318 24.384 198.814 25.056C198.31 25.704 197.602 26.244 196.69 26.676C195.778 27.108 194.758 27.324 193.63 27.324C192.214 27.324 191.086 27.036 190.246 26.46C189.406 25.884 188.866 25.128 188.626 24.192C187.762 25.152 186.802 25.884 185.746 26.388C184.714 26.868 183.658 27.108 182.578 27.108C180.898 27.108 179.482 26.7 178.33 25.884C177.202 25.044 176.638 23.88 176.638 22.392C176.638 21.72 176.758 21.024 176.998 20.304L179.302 12.78C179.374 12.564 179.41 12.384 179.41 12.24C179.41 11.976 179.35 11.772 179.23 11.628C179.11 11.46 178.93 11.292 178.69 11.124C178.45 10.932 178.282 10.764 178.186 10.62C178.09 10.476 178.078 10.284 178.15 10.044C178.294 9.492 179.05 9.012 180.418 8.604C181.786 8.172 183.214 7.956 184.702 7.956C186.094 7.956 187.114 8.22 187.762 8.748C188.41 9.276 188.734 9.996 188.734 10.908C188.734 11.46 188.65 11.988 188.482 12.492L186.214 19.98C186.118 20.244 186.07 20.496 186.07 20.736C186.07 21.072 186.166 21.324 186.358 21.492C186.55 21.66 186.802 21.744 187.114 21.744C187.57 21.744 187.942 21.612 188.23 21.348C188.518 21.084 188.806 20.64 189.094 20.016L191.29 12.78C191.362 12.564 191.398 12.384 191.398 12.24C191.398 11.976 191.338 11.772 191.218 11.628C191.098 11.46 190.93 11.292 190.714 11.124C190.474 10.932 190.306 10.764 190.21 10.62C190.114 10.476 190.102 10.284 190.174 10.044C190.294 9.492 191.038 9.012 192.406 8.604C193.774 8.172 195.202 7.956 196.69 7.956C198.082 7.956 199.102 8.22 199.75 8.748C200.422 9.276 200.758 9.984 200.758 10.872C200.758 11.328 200.662 11.868 200.47 12.492L197.554 22.032ZM211.793 7.632C213.785 7.632 215.501 7.812 216.941 8.172C218.405 8.532 219.521 9.036 220.289 9.684C221.081 10.332 221.477 11.064 221.477 11.88C221.477 12.72 221.141 13.404 220.469 13.932C219.821 14.46 218.909 14.724 217.733 14.724C216.533 14.724 215.513 14.424 214.673 13.824C213.857 13.224 213.449 12.468 213.449 11.556C213.449 11.244 213.497 10.944 213.593 10.656C213.161 10.536 212.777 10.476 212.441 10.476C211.841 10.476 211.337 10.62 210.929 10.908C210.545 11.196 210.365 11.604 210.389 12.132C210.389 12.756 210.701 13.284 211.325 13.716C211.949 14.148 212.957 14.688 214.349 15.336C215.549 15.864 216.533 16.356 217.301 16.812C218.093 17.244 218.753 17.796 219.281 18.468C219.833 19.14 220.109 19.932 220.109 20.844C220.109 21.036 220.061 21.396 219.965 21.924C219.581 23.532 218.513 24.804 216.761 25.74C215.009 26.676 212.705 27.144 209.849 27.144C206.633 27.144 204.077 26.712 202.181 25.848C200.309 24.984 199.373 23.796 199.373 22.284C199.373 21.252 199.685 20.472 200.309 19.944C200.933 19.416 201.761 19.152 202.793 19.152C203.993 19.152 205.013 19.524 205.853 20.268C206.717 21.012 207.149 21.96 207.149 23.112C207.149 23.424 207.113 23.748 207.041 24.084C207.617 24.228 208.169 24.3 208.697 24.3C209.321 24.3 209.837 24.132 210.245 23.796C210.653 23.46 210.857 22.992 210.857 22.392C210.833 21.84 210.557 21.372 210.029 20.988C209.501 20.58 208.661 20.1 207.509 19.548C206.429 19.044 205.541 18.576 204.845 18.144C204.149 17.688 203.549 17.124 203.045 16.452C202.565 15.78 202.325 14.988 202.325 14.076C202.325 12.108 203.141 10.548 204.773 9.396C206.429 8.22 208.769 7.632 211.793 7.632ZM229.857 7.956C231.249 7.956 232.269 8.22 232.917 8.748C233.565 9.276 233.889 9.996 233.889 10.908C233.889 11.46 233.805 11.988 233.637 12.492L230.325 23.256C230.253 23.544 230.217 23.796 230.217 24.012C230.217 24.324 230.277 24.576 230.397 24.768C230.517 24.936 230.685 25.104 230.901 25.272C231.069 25.44 231.189 25.584 231.261 25.704C231.333 25.8 231.345 25.932 231.297 26.1C231.177 26.412 230.937 26.64 230.577 26.784C230.217 26.928 229.665 27 228.921 27H220.713C220.089 27 219.633 26.904 219.345 26.712C219.057 26.496 218.961 26.22 219.057 25.884C219.153 25.596 219.405 25.344 219.813 25.128C220.173 24.936 220.473 24.708 220.713 24.444C220.953 24.18 221.157 23.76 221.325 23.184L224.457 12.78C224.529 12.564 224.565 12.384 224.565 12.24C224.565 11.976 224.505 11.772 224.385 11.628C224.265 11.46 224.085 11.292 223.845 11.124C223.605 10.932 223.437 10.764 223.341 10.62C223.245 10.476 223.233 10.284 223.305 10.044C223.449 9.492 224.205 9.012 225.573 8.604C226.941 8.172 228.369 7.956 229.857 7.956ZM232.269 -2.14577e-06C233.205 -2.14577e-06 233.985 0.311998 234.609 0.935999C235.233 1.536 235.545 2.28 235.545 3.168C235.545 3.792 235.377 4.404 235.041 5.004C234.729 5.604 234.273 6.096 233.673 6.48C233.097 6.84 232.449 7.02 231.729 7.02C230.817 7.02 230.049 6.72 229.425 6.12C228.825 5.496 228.513 4.728 228.489 3.816C228.489 3.216 228.645 2.628 228.957 2.052C229.269 1.452 229.713 0.959998 230.289 0.575999C230.865 0.191998 231.525 -2.14577e-06 232.269 -2.14577e-06ZM250.241 7.956C251.513 7.956 252.569 8.412 253.409 9.324C254.249 10.236 254.669 11.484 254.669 13.068C254.669 15.204 253.925 17.388 252.437 19.62C250.949 21.852 249.065 23.7 246.785 25.164C244.505 26.604 242.285 27.324 240.125 27.324C238.061 27.324 236.381 26.904 235.085 26.064C233.813 25.224 233.177 24.024 233.177 22.464C233.177 21.888 233.285 21.24 233.501 20.52L235.769 12.78C235.817 12.588 235.841 12.444 235.841 12.348C235.841 12.108 235.781 11.904 235.661 11.736C235.541 11.568 235.373 11.388 235.157 11.196C234.797 10.884 234.617 10.608 234.617 10.368C234.593 10.032 234.797 9.672 235.229 9.288C235.661 8.904 236.261 8.592 237.029 8.352C237.821 8.088 238.709 7.956 239.693 7.956C241.301 7.956 242.549 8.352 243.437 9.144C244.349 9.912 244.805 10.92 244.805 12.168C244.805 12.72 244.709 13.32 244.517 13.968L242.177 21.672C242.105 21.888 242.069 22.068 242.069 22.212C242.069 22.524 242.177 22.764 242.393 22.932C242.609 23.1 242.909 23.184 243.293 23.184C243.821 23.184 244.433 22.956 245.129 22.5C245.849 22.02 246.557 21.348 247.253 20.484C247.949 19.596 248.513 18.552 248.945 17.352C247.985 16.512 247.301 15.684 246.893 14.868C246.509 14.052 246.317 13.212 246.317 12.348C246.317 11.124 246.653 10.092 247.325 9.252C247.997 8.388 248.969 7.956 250.241 7.956ZM265.527 7.776C268.575 7.776 270.783 8.268 272.151 9.252C273.519 10.212 274.203 11.448 274.203 12.96C274.203 13.416 274.155 13.836 274.059 14.22C273.699 15.804 272.691 16.944 271.035 17.64C269.403 18.312 267.471 18.648 265.239 18.648C264.111 18.648 263.055 18.576 262.071 18.432C262.047 19.68 262.383 20.556 263.079 21.06C263.775 21.564 264.747 21.816 265.995 21.816C266.571 21.816 267.123 21.756 267.651 21.636C268.179 21.492 268.851 21.288 269.667 21.024C270.339 20.784 270.795 20.664 271.035 20.664C271.299 20.664 271.431 20.82 271.431 21.132C271.455 21.972 271.143 22.86 270.495 23.796C269.847 24.708 268.887 25.488 267.615 26.136C266.343 26.784 264.807 27.108 263.007 27.108C260.343 27.108 258.159 26.436 256.455 25.092C254.751 23.748 253.899 21.792 253.899 19.224C253.899 18.504 253.995 17.664 254.187 16.704C254.787 13.752 256.095 11.532 258.111 10.044C260.151 8.532 262.623 7.776 265.527 7.776ZM262.323 16.272C262.419 16.296 262.551 16.308 262.719 16.308C263.727 16.308 264.495 15.84 265.023 14.904C265.551 13.968 265.803 12.924 265.779 11.772C265.755 11.1 265.563 10.764 265.203 10.764C264.939 10.764 264.627 10.98 264.267 11.412C263.907 11.82 263.547 12.444 263.187 13.284C262.851 14.124 262.563 15.12 262.323 16.272ZM317.748 6.48C317.748 7.344 317.544 8.1 317.136 8.748C316.728 9.372 316.212 9.852 315.588 10.188C314.988 10.5 314.4 10.656 313.824 10.656C313.272 10.656 312.744 10.524 312.24 10.26C311.76 9.972 311.448 9.648 311.304 9.288L302.556 23.904C301.884 25.032 301.272 25.836 300.72 26.316C300.192 26.772 299.58 27 298.884 27C297.276 27 296.364 25.968 296.148 23.904L294.996 13.32L287.724 23.904C286.884 25.128 286.2 25.956 285.672 26.388C285.168 26.796 284.58 27 283.908 27C282.444 27 281.556 25.848 281.244 23.544L278.94 7.272C278.868 6.792 278.724 6.408 278.508 6.12C278.316 5.832 278.064 5.556 277.752 5.292C277.536 5.1 277.38 4.944 277.284 4.824C277.188 4.68 277.14 4.524 277.14 4.356C277.02 3.468 277.548 3.024 278.724 3.024H287.688C288.24 3.024 288.648 3.144 288.912 3.384C289.2 3.6 289.332 3.9 289.308 4.284C289.308 4.476 289.248 4.668 289.128 4.86C289.032 5.028 288.924 5.184 288.804 5.328C288.54 5.616 288.348 5.892 288.228 6.156C288.108 6.42 288.072 6.768 288.12 7.2L289.056 15.876L294.456 8.136L294.348 7.272C294.3 6.816 294.18 6.444 293.988 6.156C293.796 5.868 293.532 5.592 293.196 5.328C292.956 5.112 292.788 4.944 292.692 4.824C292.596 4.68 292.548 4.524 292.548 4.356C292.428 3.468 292.956 3.024 294.132 3.024H303.132C303.684 3.024 304.104 3.144 304.392 3.384C304.68 3.6 304.812 3.9 304.788 4.284C304.788 4.596 304.62 4.944 304.284 5.328C304.044 5.616 303.864 5.892 303.744 6.156C303.624 6.42 303.576 6.768 303.6 7.2L304.032 15.048L308.892 6.552C309.684 5.184 310.452 4.236 311.196 3.708C311.94 3.156 312.912 2.88 314.112 2.88C315.192 2.88 316.068 3.204 316.74 3.852C317.412 4.5 317.748 5.376 317.748 6.48ZM325.04 7.776C328.088 7.776 330.296 8.268 331.664 9.252C333.032 10.212 333.716 11.448 333.716 12.96C333.716 13.416 333.668 13.836 333.572 14.22C333.212 15.804 332.204 16.944 330.548 17.64C328.916 18.312 326.984 18.648 324.752 18.648C323.624 18.648 322.568 18.576 321.584 18.432C321.56 19.68 321.896 20.556 322.592 21.06C323.288 21.564 324.26 21.816 325.508 21.816C326.084 21.816 326.636 21.756 327.164 21.636C327.692 21.492 328.364 21.288 329.18 21.024C329.852 20.784 330.308 20.664 330.548 20.664C330.812 20.664 330.944 20.82 330.944 21.132C330.968 21.972 330.656 22.86 330.008 23.796C329.36 24.708 328.4 25.488 327.128 26.136C325.856 26.784 324.32 27.108 322.52 27.108C319.856 27.108 317.672 26.436 315.968 25.092C314.264 23.748 313.412 21.792 313.412 19.224C313.412 18.504 313.508 17.664 313.7 16.704C314.3 13.752 315.608 11.532 317.624 10.044C319.664 8.532 322.136 7.776 325.04 7.776ZM321.836 16.272C321.932 16.296 322.064 16.308 322.232 16.308C323.24 16.308 324.008 15.84 324.536 14.904C325.064 13.968 325.316 12.924 325.292 11.772C325.268 11.1 325.076 10.764 324.716 10.764C324.452 10.764 324.14 10.98 323.78 11.412C323.42 11.82 323.06 12.444 322.7 13.284C322.364 14.124 322.076 15.12 321.836 16.272ZM350.44 7.812C352.216 7.812 353.632 8.448 354.688 9.72C355.768 10.992 356.308 12.672 356.308 14.76C356.308 15.84 356.176 16.896 355.912 17.928C355.144 21.024 353.824 23.364 351.952 24.948C350.104 26.532 347.968 27.324 345.544 27.324C344.176 27.324 342.988 27.096 341.98 26.64C340.996 26.16 340.204 25.488 339.604 24.624L338.308 25.74C337.804 26.172 337.312 26.496 336.832 26.712C336.352 26.904 335.8 27 335.176 27H333.592C332.992 27 332.524 26.88 332.188 26.64C331.876 26.376 331.72 26.004 331.72 25.524C331.72 25.308 331.756 25.056 331.828 24.768L337.84 5.22C337.912 5.004 337.948 4.824 337.948 4.68C337.948 4.272 337.696 3.888 337.192 3.528C336.952 3.312 336.784 3.144 336.688 3.024C336.592 2.88 336.58 2.7 336.652 2.484C336.82 1.932 337.576 1.452 338.92 1.044C340.288 0.611999 341.716 0.395999 343.204 0.395999C344.596 0.395999 345.616 0.671999 346.264 1.224C346.936 1.752 347.272 2.472 347.272 3.384C347.272 3.888 347.188 4.392 347.02 4.896L345.508 9.792C346.9 8.472 348.544 7.812 350.44 7.812ZM346.372 17.712C346.852 16.08 347.092 14.76 347.092 13.752C347.092 12.648 346.768 12.096 346.12 12.096C345.544 12.096 345.004 12.396 344.5 12.996L342.16 20.628L341.944 21.312C341.824 21.672 341.764 22.044 341.764 22.428C341.764 23.268 342.16 23.688 342.952 23.688C343.528 23.688 344.08 23.268 344.608 22.428C345.136 21.588 345.724 20.016 346.372 17.712ZM368.091 7.632C370.083 7.632 371.799 7.812 373.239 8.172C374.703 8.532 375.819 9.036 376.587 9.684C377.379 10.332 377.775 11.064 377.775 11.88C377.775 12.72 377.439 13.404 376.767 13.932C376.119 14.46 375.207 14.724 374.031 14.724C372.831 14.724 371.811 14.424 370.971 13.824C370.155 13.224 369.747 12.468 369.747 11.556C369.747 11.244 369.795 10.944 369.891 10.656C369.459 10.536 369.075 10.476 368.739 10.476C368.139 10.476 367.635 10.62 367.227 10.908C366.843 11.196 366.663 11.604 366.687 12.132C366.687 12.756 366.999 13.284 367.623 13.716C368.247 14.148 369.255 14.688 370.647 15.336C371.847 15.864 372.831 16.356 373.599 16.812C374.391 17.244 375.051 17.796 375.579 18.468C376.131 19.14 376.407 19.932 376.407 20.844C376.407 21.036 376.359 21.396 376.263 21.924C375.879 23.532 374.811 24.804 373.059 25.74C371.307 26.676 369.003 27.144 366.147 27.144C362.931 27.144 360.375 26.712 358.479 25.848C356.607 24.984 355.671 23.796 355.671 22.284C355.671 21.252 355.983 20.472 356.607 19.944C357.231 19.416 358.059 19.152 359.091 19.152C360.291 19.152 361.311 19.524 362.151 20.268C363.015 21.012 363.447 21.96 363.447 23.112C363.447 23.424 363.411 23.748 363.339 24.084C363.915 24.228 364.467 24.3 364.995 24.3C365.619 24.3 366.135 24.132 366.543 23.796C366.951 23.46 367.155 22.992 367.155 22.392C367.131 21.84 366.855 21.372 366.327 20.988C365.799 20.58 364.959 20.1 363.807 19.548C362.727 19.044 361.839 18.576 361.143 18.144C360.447 17.688 359.847 17.124 359.343 16.452C358.863 15.78 358.623 14.988 358.623 14.076C358.623 12.108 359.439 10.548 361.071 9.396C362.727 8.22 365.067 7.632 368.091 7.632ZM386.155 7.956C387.547 7.956 388.567 8.22 389.215 8.748C389.863 9.276 390.187 9.996 390.187 10.908C390.187 11.46 390.103 11.988 389.935 12.492L386.623 23.256C386.551 23.544 386.515 23.796 386.515 24.012C386.515 24.324 386.575 24.576 386.695 24.768C386.815 24.936 386.983 25.104 387.199 25.272C387.367 25.44 387.487 25.584 387.559 25.704C387.631 25.8 387.643 25.932 387.595 26.1C387.475 26.412 387.235 26.64 386.875 26.784C386.515 26.928 385.963 27 385.219 27H377.011C376.387 27 375.931 26.904 375.643 26.712C375.355 26.496 375.259 26.22 375.355 25.884C375.451 25.596 375.703 25.344 376.111 25.128C376.471 24.936 376.771 24.708 377.011 24.444C377.251 24.18 377.455 23.76 377.623 23.184L380.755 12.78C380.827 12.564 380.863 12.384 380.863 12.24C380.863 11.976 380.803 11.772 380.683 11.628C380.563 11.46 380.383 11.292 380.143 11.124C379.903 10.932 379.735 10.764 379.639 10.62C379.543 10.476 379.531 10.284 379.603 10.044C379.747 9.492 380.503 9.012 381.871 8.604C383.239 8.172 384.667 7.956 386.155 7.956ZM388.567 -2.14577e-06C389.503 -2.14577e-06 390.283 0.311998 390.907 0.935999C391.531 1.536 391.843 2.28 391.843 3.168C391.843 3.792 391.675 4.404 391.339 5.004C391.027 5.604 390.571 6.096 389.971 6.48C389.395 6.84 388.747 7.02 388.027 7.02C387.115 7.02 386.347 6.72 385.723 6.12C385.123 5.496 384.811 4.728 384.787 3.816C384.787 3.216 384.943 2.628 385.255 2.052C385.567 1.452 386.011 0.959998 386.587 0.575999C387.163 0.191998 387.823 -2.14577e-06 388.567 -2.14577e-06ZM405.062 8.424C405.518 8.424 405.866 8.52 406.106 8.712C406.37 8.904 406.502 9.168 406.502 9.504C406.502 9.6 406.478 9.768 406.43 10.008C406.118 11.064 405.398 11.592 404.27 11.592H402.182L399.482 20.484C399.362 20.844 399.302 21.216 399.302 21.6C399.302 22.032 399.422 22.332 399.662 22.5C399.902 22.668 400.238 22.752 400.67 22.752C401.054 22.752 401.534 22.704 402.11 22.608C402.398 22.536 402.65 22.5 402.866 22.5C403.034 22.5 403.154 22.56 403.226 22.68C403.322 22.776 403.37 22.908 403.37 23.076C403.394 23.556 403.034 24.144 402.29 24.84C401.57 25.512 400.586 26.1 399.338 26.604C398.09 27.084 396.71 27.324 395.198 27.324C393.566 27.324 392.258 26.952 391.274 26.208C390.29 25.464 389.798 24.444 389.798 23.148C389.798 22.548 389.894 21.972 390.086 21.42L392.39 14.292C392.51 13.884 392.57 13.56 392.57 13.32C392.57 12.84 392.45 12.432 392.21 12.096C391.994 11.76 391.682 11.412 391.274 11.052C390.914 10.716 390.662 10.44 390.518 10.224C390.374 9.984 390.338 9.708 390.41 9.396C390.506 9.084 390.71 8.844 391.022 8.676C391.334 8.508 391.826 8.424 392.498 8.424H394.514L396.782 6.156C397.574 5.364 398.294 4.812 398.942 4.5C399.614 4.188 400.478 4.032 401.534 4.032C403.046 4.032 403.802 4.608 403.802 5.76C403.802 6.12 403.754 6.456 403.658 6.768L403.154 8.424H405.062ZM415.743 7.776C418.791 7.776 420.999 8.268 422.367 9.252C423.735 10.212 424.419 11.448 424.419 12.96C424.419 13.416 424.371 13.836 424.275 14.22C423.915 15.804 422.907 16.944 421.251 17.64C419.619 18.312 417.687 18.648 415.455 18.648C414.327 18.648 413.271 18.576 412.287 18.432C412.263 19.68 412.599 20.556 413.295 21.06C413.991 21.564 414.963 21.816 416.211 21.816C416.787 21.816 417.339 21.756 417.867 21.636C418.395 21.492 419.067 21.288 419.883 21.024C420.555 20.784 421.011 20.664 421.251 20.664C421.515 20.664 421.647 20.82 421.647 21.132C421.671 21.972 421.359 22.86 420.711 23.796C420.063 24.708 419.103 25.488 417.831 26.136C416.559 26.784 415.023 27.108 413.223 27.108C410.559 27.108 408.375 26.436 406.671 25.092C404.967 23.748 404.115 21.792 404.115 19.224C404.115 18.504 404.211 17.664 404.403 16.704C405.003 13.752 406.311 11.532 408.327 10.044C410.367 8.532 412.839 7.776 415.743 7.776ZM412.539 16.272C412.635 16.296 412.767 16.308 412.935 16.308C413.943 16.308 414.711 15.84 415.239 14.904C415.767 13.968 416.019 12.924 415.995 11.772C415.971 11.1 415.779 10.764 415.419 10.764C415.155 10.764 414.843 10.98 414.483 11.412C414.123 11.82 413.763 12.444 413.403 13.284C413.067 14.124 412.779 15.12 412.539 16.272Z" fill="#C5FD6A"/>
<path d="M39.664 3.024C40.168 3.024 40.552 3.108 40.816 3.276C41.104 3.42 41.248 3.636 41.248 3.924C41.248 4.044 41.212 4.2 41.14 4.392C41.068 4.608 40.96 4.776 40.816 4.896C40.696 4.992 40.504 5.124 40.24 5.292C39.856 5.508 39.544 5.748 39.304 6.012C39.088 6.276 38.896 6.684 38.728 7.236L34.336 22.716C34.24 23.028 34.192 23.328 34.192 23.616C34.192 23.88 34.228 24.108 34.3 24.3C34.396 24.468 34.516 24.672 34.66 24.912C34.756 25.032 34.84 25.164 34.912 25.308C34.984 25.428 35.02 25.56 35.02 25.704C35.02 25.752 34.996 25.872 34.948 26.064C34.852 26.376 34.624 26.604 34.264 26.748C33.928 26.892 33.436 26.964 32.788 26.964H24.328C23.824 26.964 23.428 26.88 23.14 26.712C22.876 26.544 22.744 26.316 22.744 26.028C22.744 25.884 22.78 25.728 22.852 25.56C22.924 25.392 23.02 25.248 23.14 25.128C23.284 24.984 23.404 24.888 23.5 24.84C23.62 24.768 23.704 24.708 23.752 24.66C24.136 24.444 24.448 24.204 24.688 23.94C24.928 23.676 25.132 23.268 25.3 22.716L28.036 12.996L18.712 24.552C17.944 25.488 17.32 26.136 16.84 26.496C16.384 26.832 15.856 27 15.256 27C14.68 27 14.224 26.82 13.888 26.46C13.576 26.076 13.288 25.44 13.024 24.552L9.64 13.428L6.976 22.752C6.88 23.064 6.832 23.364 6.832 23.652C6.832 23.94 6.868 24.18 6.94 24.372C7.036 24.564 7.168 24.768 7.336 24.984C7.552 25.296 7.66 25.548 7.66 25.74C7.66 25.788 7.636 25.908 7.588 26.1C7.492 26.436 7.276 26.676 6.94 26.82C6.604 26.94 6.1 27 5.428 27H2.44C1.936 27 1.54 26.916 1.252 26.748C0.988 26.58 0.856 26.352 0.856 26.064C0.856 25.92 0.892 25.764 0.964 25.596C1.06 25.332 1.216 25.128 1.432 24.984C1.648 24.84 1.78 24.756 1.828 24.732C2.212 24.492 2.524 24.252 2.764 24.012C3.004 23.748 3.208 23.328 3.376 22.752L7.768 7.2L7.192 5.292C7.072 4.932 7.012 4.584 7.012 4.248C7.012 3.816 7.144 3.504 7.408 3.312C7.696 3.12 8.128 3.024 8.704 3.024H14.284C15.004 3.024 15.532 3.18 15.868 3.492C16.228 3.804 16.516 4.344 16.732 5.112L20.332 17.064L30.088 4.932C30.712 4.164 31.324 3.66 31.924 3.42C32.524 3.156 33.316 3.024 34.3 3.024H39.664ZM51.2976 7.956C54.5616 7.956 56.9616 8.616 58.4976 9.936C60.0576 11.256 60.8376 12.984 60.8376 15.12C60.8376 15.84 60.7416 16.644 60.5496 17.532C60.0936 19.5 59.2416 21.228 57.9936 22.716C56.7456 24.18 55.2096 25.32 53.3856 26.136C51.5856 26.928 49.6296 27.324 47.5176 27.324C44.1816 27.324 41.7096 26.664 40.1016 25.344C38.5176 24 37.7256 22.224 37.7256 20.016C37.7256 19.272 37.8216 18.444 38.0136 17.532C38.4696 15.66 39.3336 14.004 40.6056 12.564C41.9016 11.1 43.4736 9.972 45.3216 9.18C47.1936 8.364 49.1856 7.956 51.2976 7.956ZM51.1896 11.16C50.6856 11.16 50.1456 11.616 49.5696 12.528C49.0176 13.416 48.3576 15.108 47.5896 17.604C46.8216 20.1 46.4376 21.852 46.4376 22.86C46.4376 23.388 46.5216 23.748 46.6896 23.94C46.8576 24.108 47.0856 24.192 47.3736 24.192C47.8776 24.24 48.3936 23.808 48.9216 22.896C49.4736 21.984 50.1576 20.208 50.9736 17.568C51.7176 15.24 52.0896 13.548 52.0896 12.492C52.0896 11.988 52.0056 11.64 51.8376 11.448C51.6936 11.256 51.4776 11.16 51.1896 11.16ZM71.9346 7.632C73.9266 7.632 75.6426 7.812 77.0826 8.172C78.5466 8.532 79.6626 9.036 80.4306 9.684C81.2226 10.332 81.6186 11.064 81.6186 11.88C81.6186 12.72 81.2826 13.404 80.6106 13.932C79.9626 14.46 79.0506 14.724 77.8746 14.724C76.6746 14.724 75.6546 14.424 74.8146 13.824C73.9986 13.224 73.5906 12.468 73.5906 11.556C73.5906 11.244 73.6386 10.944 73.7346 10.656C73.3026 10.536 72.9186 10.476 72.5826 10.476C71.9826 10.476 71.4786 10.62 71.0706 10.908C70.6866 11.196 70.5066 11.604 70.5306 12.132C70.5306 12.756 70.8426 13.284 71.4666 13.716C72.0906 14.148 73.0986 14.688 74.4906 15.336C75.6906 15.864 76.6746 16.356 77.4426 16.812C78.2346 17.244 78.8946 17.796 79.4226 18.468C79.9746 19.14 80.2506 19.932 80.2506 20.844C80.2506 21.036 80.2026 21.396 80.1066 21.924C79.7226 23.532 78.6546 24.804 76.9026 25.74C75.1506 26.676 72.8466 27.144 69.9906 27.144C66.7746 27.144 64.2186 26.712 62.3226 25.848C60.4506 24.984 59.5146 23.796 59.5146 22.284C59.5146 21.252 59.8266 20.472 60.4506 19.944C61.0746 19.416 61.9026 19.152 62.9346 19.152C64.1346 19.152 65.1546 19.524 65.9946 20.268C66.8586 21.012 67.2906 21.96 67.2906 23.112C67.2906 23.424 67.2546 23.748 67.1826 24.084C67.7586 24.228 68.3106 24.3 68.8386 24.3C69.4626 24.3 69.9786 24.132 70.3866 23.796C70.7946 23.46 70.9986 22.992 70.9986 22.392C70.9746 21.84 70.6986 21.372 70.1706 20.988C69.6426 20.58 68.8026 20.1 67.6506 19.548C66.5706 19.044 65.6826 18.576 64.9866 18.144C64.2906 17.688 63.6906 17.124 63.1866 16.452C62.7066 15.78 62.4666 14.988 62.4666 14.076C62.4666 12.108 63.2826 10.548 64.9146 9.396C66.5706 8.22 68.9106 7.632 71.9346 7.632ZM96.6225 8.424C97.0785 8.424 97.4265 8.52 97.6665 8.712C97.9305 8.904 98.0625 9.168 98.0625 9.504C98.0625 9.6 98.0385 9.768 97.9905 10.008C97.6785 11.064 96.9585 11.592 95.8305 11.592H93.7425L91.0425 20.484C90.9225 20.844 90.8625 21.216 90.8625 21.6C90.8625 22.032 90.9825 22.332 91.2225 22.5C91.4625 22.668 91.7985 22.752 92.2305 22.752C92.6145 22.752 93.0945 22.704 93.6705 22.608C93.9585 22.536 94.2105 22.5 94.4265 22.5C94.5945 22.5 94.7145 22.56 94.7865 22.68C94.8825 22.776 94.9305 22.908 94.9305 23.076C94.9545 23.556 94.5945 24.144 93.8505 24.84C93.1305 25.512 92.1465 26.1 90.8985 26.604C89.6505 27.084 88.2705 27.324 86.7585 27.324C85.1265 27.324 83.8185 26.952 82.8345 26.208C81.8505 25.464 81.3585 24.444 81.3585 23.148C81.3585 22.548 81.4545 21.972 81.6465 21.42L83.9505 14.292C84.0705 13.884 84.1305 13.56 84.1305 13.32C84.1305 12.84 84.0105 12.432 83.7705 12.096C83.5545 11.76 83.2425 11.412 82.8345 11.052C82.4745 10.716 82.2225 10.44 82.0785 10.224C81.9345 9.984 81.8985 9.708 81.9705 9.396C82.0665 9.084 82.2705 8.844 82.5825 8.676C82.8945 8.508 83.3865 8.424 84.0585 8.424H86.0745L88.3425 6.156C89.1345 5.364 89.8545 4.812 90.5025 4.5C91.1745 4.188 92.0385 4.032 93.0945 4.032C94.6065 4.032 95.3625 4.608 95.3625 5.76C95.3625 6.12 95.3145 6.456 95.2185 6.768L94.7145 8.424H96.6225ZM124.914 3.024C125.802 3.024 126.486 3.216 126.966 3.6C127.47 3.984 127.722 4.512 127.722 5.184C127.722 5.52 127.674 5.844 127.578 6.156L126.642 9.504C126.474 10.152 126.222 10.608 125.886 10.872C125.574 11.112 125.118 11.232 124.518 11.232C123.942 11.232 123.486 11.112 123.15 10.872C122.838 10.608 122.598 10.188 122.43 9.612L121.854 7.56C121.734 7.128 121.59 6.84 121.422 6.696C121.254 6.552 120.93 6.48 120.45 6.48H116.67L114.87 12.888H116.454C116.622 12.888 116.85 12.768 117.138 12.528L118.362 11.448C118.722 11.136 119.034 10.908 119.298 10.764C119.562 10.62 119.886 10.548 120.27 10.548C120.702 10.548 121.05 10.668 121.314 10.908C121.602 11.124 121.746 11.412 121.746 11.772C121.746 11.868 121.722 12.012 121.674 12.204L120.198 17.208C120.054 17.736 119.802 18.132 119.442 18.396C119.106 18.636 118.734 18.756 118.326 18.756C117.654 18.756 117.15 18.408 116.814 17.712L116.202 16.452C116.034 16.092 115.77 15.912 115.41 15.912H114.006L111.882 23.544H115.05C115.506 23.544 115.902 23.46 116.238 23.292C116.598 23.1 116.982 22.776 117.39 22.32L119.55 19.944C119.934 19.536 120.294 19.248 120.63 19.08C120.99 18.888 121.422 18.792 121.926 18.792C122.454 18.792 122.886 18.912 123.222 19.152C123.558 19.392 123.726 19.752 123.726 20.232C123.726 20.424 123.69 20.652 123.618 20.916L122.574 24.552C122.31 25.464 121.926 26.1 121.422 26.46C120.918 26.82 120.186 27 119.226 27H102.054C101.55 27 101.166 26.916 100.902 26.748C100.614 26.58 100.47 26.352 100.47 26.064C100.47 25.92 100.506 25.764 100.578 25.596C100.674 25.332 100.83 25.128 101.046 24.984C101.262 24.84 101.394 24.756 101.442 24.732C101.826 24.492 102.138 24.252 102.378 24.012C102.618 23.748 102.822 23.328 102.99 22.752L107.418 7.236C107.514 6.924 107.562 6.636 107.562 6.372C107.562 6.084 107.514 5.844 107.418 5.652C107.346 5.46 107.226 5.256 107.058 5.04C106.842 4.728 106.734 4.476 106.734 4.284C106.734 4.212 106.758 4.08 106.806 3.888C106.902 3.576 107.118 3.36 107.454 3.24C107.79 3.096 108.282 3.024 108.93 3.024H124.914ZM143.631 7.956C144.639 7.956 145.467 8.304 146.115 9C146.763 9.672 147.087 10.512 147.087 11.52C147.087 11.976 147.015 12.444 146.871 12.924C146.607 13.74 146.211 14.352 145.683 14.76C145.179 15.168 144.603 15.372 143.955 15.372C143.187 15.372 142.443 15.12 141.723 14.616L139.923 16.308C140.523 17.94 141.015 19.152 141.399 19.944C141.783 20.736 142.095 21.252 142.335 21.492C142.575 21.708 142.851 21.816 143.163 21.816C143.331 21.816 143.547 21.756 143.811 21.636C144.075 21.492 144.279 21.42 144.423 21.42C144.567 21.42 144.687 21.492 144.783 21.636C144.879 21.756 144.927 21.924 144.927 22.14C144.927 22.26 144.903 22.44 144.855 22.68C144.663 23.496 144.255 24.24 143.631 24.912C143.007 25.584 142.263 26.124 141.399 26.532C140.535 26.916 139.659 27.108 138.771 27.108C137.883 27.108 137.115 27 136.467 26.784C135.819 26.544 135.159 26.028 134.487 25.236C133.815 24.444 133.131 23.256 132.435 21.672L131.535 23.688C130.959 24.96 130.371 25.86 129.771 26.388C129.195 26.892 128.511 27.144 127.719 27.144C126.663 27.144 125.799 26.808 125.127 26.136C124.455 25.464 124.119 24.612 124.119 23.58C124.119 23.1 124.191 22.632 124.335 22.176C124.599 21.36 124.983 20.748 125.487 20.34C126.015 19.932 126.603 19.728 127.251 19.728C128.019 19.728 128.763 19.98 129.483 20.484L131.283 18.792C130.707 17.16 130.239 15.948 129.879 15.156C129.519 14.34 129.207 13.824 128.943 13.608C128.703 13.368 128.427 13.248 128.115 13.248C127.947 13.248 127.731 13.32 127.467 13.464C127.227 13.584 127.035 13.644 126.891 13.644C126.531 13.644 126.351 13.392 126.351 12.888C126.351 12.816 126.375 12.66 126.423 12.42C126.735 11.172 127.491 10.116 128.691 9.252C129.891 8.388 131.175 7.956 132.543 7.956C133.407 7.956 134.163 8.088 134.811 8.352C135.483 8.616 136.143 9.144 136.791 9.936C137.463 10.728 138.135 11.88 138.807 13.392L139.815 11.124C140.343 9.972 140.895 9.156 141.471 8.676C142.047 8.196 142.767 7.956 143.631 7.956ZM158.342 7.776C159.806 7.776 161.09 7.992 162.194 8.424C163.298 8.832 164.15 9.408 164.75 10.152C165.374 10.872 165.686 11.676 165.686 12.564C165.686 13.524 165.35 14.316 164.678 14.94C164.03 15.564 163.142 15.876 162.014 15.876C160.862 15.876 159.962 15.588 159.314 15.012C158.666 14.412 158.342 13.608 158.342 12.6C158.342 12.12 158.414 11.616 158.558 11.088C157.55 11.352 156.65 11.88 155.858 12.672C155.09 13.44 154.574 14.46 154.31 15.732C154.166 16.452 154.094 17.1 154.094 17.676C154.094 18.972 154.454 19.956 155.174 20.628C155.894 21.3 156.926 21.636 158.27 21.636C159.038 21.636 159.698 21.564 160.25 21.42C160.802 21.252 161.366 21.036 161.942 20.772C162.422 20.532 162.77 20.412 162.986 20.412C163.13 20.412 163.226 20.448 163.274 20.52C163.322 20.568 163.346 20.688 163.346 20.88C163.37 21.768 162.998 22.704 162.23 23.688C161.486 24.648 160.442 25.464 159.098 26.136C157.778 26.784 156.29 27.108 154.634 27.108C152.906 27.108 151.37 26.796 150.026 26.172C148.706 25.524 147.674 24.612 146.93 23.436C146.21 22.236 145.85 20.844 145.85 19.26C145.85 18.516 145.946 17.688 146.138 16.776C146.786 13.8 148.214 11.556 150.422 10.044C152.654 8.532 155.294 7.776 158.342 7.776ZM175.37 0.395999C176.762 0.395999 177.782 0.659999 178.43 1.188C179.102 1.716 179.438 2.436 179.438 3.348C179.438 3.876 179.354 4.392 179.186 4.896L173.534 23.256C173.462 23.544 173.426 23.796 173.426 24.012C173.426 24.324 173.486 24.576 173.606 24.768C173.726 24.936 173.894 25.104 174.11 25.272C174.278 25.44 174.398 25.584 174.47 25.704C174.542 25.8 174.554 25.932 174.506 26.1C174.386 26.412 174.146 26.64 173.786 26.784C173.426 26.928 172.874 27 172.13 27H163.922C163.298 27 162.842 26.904 162.554 26.712C162.266 26.496 162.17 26.22 162.266 25.884C162.362 25.596 162.614 25.344 163.022 25.128C163.382 24.936 163.682 24.708 163.922 24.444C164.162 24.18 164.366 23.76 164.534 23.184L170.006 5.22C170.078 5.004 170.114 4.824 170.114 4.68C170.114 4.416 170.042 4.2 169.898 4.032C169.778 3.864 169.61 3.696 169.394 3.528C169.154 3.336 168.974 3.168 168.854 3.024C168.758 2.88 168.746 2.688 168.818 2.448C168.962 1.896 169.718 1.416 171.086 1.008C172.454 0.599999 173.882 0.395999 175.37 0.395999ZM197.554 22.032C197.506 22.224 197.482 22.368 197.482 22.464C197.482 22.632 197.518 22.764 197.59 22.86C197.686 22.956 197.806 23.004 197.95 23.004C198.238 23.004 198.478 22.884 198.67 22.644C198.886 22.38 199.03 22.248 199.102 22.248C199.222 22.248 199.318 22.332 199.39 22.5C199.486 22.644 199.534 22.824 199.534 23.04C199.558 23.712 199.318 24.384 198.814 25.056C198.31 25.704 197.602 26.244 196.69 26.676C195.778 27.108 194.758 27.324 193.63 27.324C192.214 27.324 191.086 27.036 190.246 26.46C189.406 25.884 188.866 25.128 188.626 24.192C187.762 25.152 186.802 25.884 185.746 26.388C184.714 26.868 183.658 27.108 182.578 27.108C180.898 27.108 179.482 26.7 178.33 25.884C177.202 25.044 176.638 23.88 176.638 22.392C176.638 21.72 176.758 21.024 176.998 20.304L179.302 12.78C179.374 12.564 179.41 12.384 179.41 12.24C179.41 11.976 179.35 11.772 179.23 11.628C179.11 11.46 178.93 11.292 178.69 11.124C178.45 10.932 178.282 10.764 178.186 10.62C178.09 10.476 178.078 10.284 178.15 10.044C178.294 9.492 179.05 9.012 180.418 8.604C181.786 8.172 183.214 7.956 184.702 7.956C186.094 7.956 187.114 8.22 187.762 8.748C188.41 9.276 188.734 9.996 188.734 10.908C188.734 11.46 188.65 11.988 188.482 12.492L186.214 19.98C186.118 20.244 186.07 20.496 186.07 20.736C186.07 21.072 186.166 21.324 186.358 21.492C186.55 21.66 186.802 21.744 187.114 21.744C187.57 21.744 187.942 21.612 188.23 21.348C188.518 21.084 188.806 20.64 189.094 20.016L191.29 12.78C191.362 12.564 191.398 12.384 191.398 12.24C191.398 11.976 191.338 11.772 191.218 11.628C191.098 11.46 190.93 11.292 190.714 11.124C190.474 10.932 190.306 10.764 190.21 10.62C190.114 10.476 190.102 10.284 190.174 10.044C190.294 9.492 191.038 9.012 192.406 8.604C193.774 8.172 195.202 7.956 196.69 7.956C198.082 7.956 199.102 8.22 199.75 8.748C200.422 9.276 200.758 9.984 200.758 10.872C200.758 11.328 200.662 11.868 200.47 12.492L197.554 22.032ZM211.793 7.632C213.785 7.632 215.501 7.812 216.941 8.172C218.405 8.532 219.521 9.036 220.289 9.684C221.081 10.332 221.477 11.064 221.477 11.88C221.477 12.72 221.141 13.404 220.469 13.932C219.821 14.46 218.909 14.724 217.733 14.724C216.533 14.724 215.513 14.424 214.673 13.824C213.857 13.224 213.449 12.468 213.449 11.556C213.449 11.244 213.497 10.944 213.593 10.656C213.161 10.536 212.777 10.476 212.441 10.476C211.841 10.476 211.337 10.62 210.929 10.908C210.545 11.196 210.365 11.604 210.389 12.132C210.389 12.756 210.701 13.284 211.325 13.716C211.949 14.148 212.957 14.688 214.349 15.336C215.549 15.864 216.533 16.356 217.301 16.812C218.093 17.244 218.753 17.796 219.281 18.468C219.833 19.14 220.109 19.932 220.109 20.844C220.109 21.036 220.061 21.396 219.965 21.924C219.581 23.532 218.513 24.804 216.761 25.74C215.009 26.676 212.705 27.144 209.849 27.144C206.633 27.144 204.077 26.712 202.181 25.848C200.309 24.984 199.373 23.796 199.373 22.284C199.373 21.252 199.685 20.472 200.309 19.944C200.933 19.416 201.761 19.152 202.793 19.152C203.993 19.152 205.013 19.524 205.853 20.268C206.717 21.012 207.149 21.96 207.149 23.112C207.149 23.424 207.113 23.748 207.041 24.084C207.617 24.228 208.169 24.3 208.697 24.3C209.321 24.3 209.837 24.132 210.245 23.796C210.653 23.46 210.857 22.992 210.857 22.392C210.833 21.84 210.557 21.372 210.029 20.988C209.501 20.58 208.661 20.1 207.509 19.548C206.429 19.044 205.541 18.576 204.845 18.144C204.149 17.688 203.549 17.124 203.045 16.452C202.565 15.78 202.325 14.988 202.325 14.076C202.325 12.108 203.141 10.548 204.773 9.396C206.429 8.22 208.769 7.632 211.793 7.632ZM229.857 7.956C231.249 7.956 232.269 8.22 232.917 8.748C233.565 9.276 233.889 9.996 233.889 10.908C233.889 11.46 233.805 11.988 233.637 12.492L230.325 23.256C230.253 23.544 230.217 23.796 230.217 24.012C230.217 24.324 230.277 24.576 230.397 24.768C230.517 24.936 230.685 25.104 230.901 25.272C231.069 25.44 231.189 25.584 231.261 25.704C231.333 25.8 231.345 25.932 231.297 26.1C231.177 26.412 230.937 26.64 230.577 26.784C230.217 26.928 229.665 27 228.921 27H220.713C220.089 27 219.633 26.904 219.345 26.712C219.057 26.496 218.961 26.22 219.057 25.884C219.153 25.596 219.405 25.344 219.813 25.128C220.173 24.936 220.473 24.708 220.713 24.444C220.953 24.18 221.157 23.76 221.325 23.184L224.457 12.78C224.529 12.564 224.565 12.384 224.565 12.24C224.565 11.976 224.505 11.772 224.385 11.628C224.265 11.46 224.085 11.292 223.845 11.124C223.605 10.932 223.437 10.764 223.341 10.62C223.245 10.476 223.233 10.284 223.305 10.044C223.449 9.492 224.205 9.012 225.573 8.604C226.941 8.172 228.369 7.956 229.857 7.956ZM232.269 -2.14577e-06C233.205 -2.14577e-06 233.985 0.311998 234.609 0.935999C235.233 1.536 235.545 2.28 235.545 3.168C235.545 3.792 235.377 4.404 235.041 5.004C234.729 5.604 234.273 6.096 233.673 6.48C233.097 6.84 232.449 7.02 231.729 7.02C230.817 7.02 230.049 6.72 229.425 6.12C228.825 5.496 228.513 4.728 228.489 3.816C228.489 3.216 228.645 2.628 228.957 2.052C229.269 1.452 229.713 0.959998 230.289 0.575999C230.865 0.191998 231.525 -2.14577e-06 232.269 -2.14577e-06ZM250.241 7.956C251.513 7.956 252.569 8.412 253.409 9.324C254.249 10.236 254.669 11.484 254.669 13.068C254.669 15.204 253.925 17.388 252.437 19.62C250.949 21.852 249.065 23.7 246.785 25.164C244.505 26.604 242.285 27.324 240.125 27.324C238.061 27.324 236.381 26.904 235.085 26.064C233.813 25.224 233.177 24.024 233.177 22.464C233.177 21.888 233.285 21.24 233.501 20.52L235.769 12.78C235.817 12.588 235.841 12.444 235.841 12.348C235.841 12.108 235.781 11.904 235.661 11.736C235.541 11.568 235.373 11.388 235.157 11.196C234.797 10.884 234.617 10.608 234.617 10.368C234.593 10.032 234.797 9.672 235.229 9.288C235.661 8.904 236.261 8.592 237.029 8.352C237.821 8.088 238.709 7.956 239.693 7.956C241.301 7.956 242.549 8.352 243.437 9.144C244.349 9.912 244.805 10.92 244.805 12.168C244.805 12.72 244.709 13.32 244.517 13.968L242.177 21.672C242.105 21.888 242.069 22.068 242.069 22.212C242.069 22.524 242.177 22.764 242.393 22.932C242.609 23.1 242.909 23.184 243.293 23.184C243.821 23.184 244.433 22.956 245.129 22.5C245.849 22.02 246.557 21.348 247.253 20.484C247.949 19.596 248.513 18.552 248.945 17.352C247.985 16.512 247.301 15.684 246.893 14.868C246.509 14.052 246.317 13.212 246.317 12.348C246.317 11.124 246.653 10.092 247.325 9.252C247.997 8.388 248.969 7.956 250.241 7.956ZM265.527 7.776C268.575 7.776 270.783 8.268 272.151 9.252C273.519 10.212 274.203 11.448 274.203 12.96C274.203 13.416 274.155 13.836 274.059 14.22C273.699 15.804 272.691 16.944 271.035 17.64C269.403 18.312 267.471 18.648 265.239 18.648C264.111 18.648 263.055 18.576 262.071 18.432C262.047 19.68 262.383 20.556 263.079 21.06C263.775 21.564 264.747 21.816 265.995 21.816C266.571 21.816 267.123 21.756 267.651 21.636C268.179 21.492 268.851 21.288 269.667 21.024C270.339 20.784 270.795 20.664 271.035 20.664C271.299 20.664 271.431 20.82 271.431 21.132C271.455 21.972 271.143 22.86 270.495 23.796C269.847 24.708 268.887 25.488 267.615 26.136C266.343 26.784 264.807 27.108 263.007 27.108C260.343 27.108 258.159 26.436 256.455 25.092C254.751 23.748 253.899 21.792 253.899 19.224C253.899 18.504 253.995 17.664 254.187 16.704C254.787 13.752 256.095 11.532 258.111 10.044C260.151 8.532 262.623 7.776 265.527 7.776ZM262.323 16.272C262.419 16.296 262.551 16.308 262.719 16.308C263.727 16.308 264.495 15.84 265.023 14.904C265.551 13.968 265.803 12.924 265.779 11.772C265.755 11.1 265.563 10.764 265.203 10.764C264.939 10.764 264.627 10.98 264.267 11.412C263.907 11.82 263.547 12.444 263.187 13.284C262.851 14.124 262.563 15.12 262.323 16.272ZM317.748 6.48C317.748 7.344 317.544 8.1 317.136 8.748C316.728 9.372 316.212 9.852 315.588 10.188C314.988 10.5 314.4 10.656 313.824 10.656C313.272 10.656 312.744 10.524 312.24 10.26C311.76 9.972 311.448 9.648 311.304 9.288L302.556 23.904C301.884 25.032 301.272 25.836 300.72 26.316C300.192 26.772 299.58 27 298.884 27C297.276 27 296.364 25.968 296.148 23.904L294.996 13.32L287.724 23.904C286.884 25.128 286.2 25.956 285.672 26.388C285.168 26.796 284.58 27 283.908 27C282.444 27 281.556 25.848 281.244 23.544L278.94 7.272C278.868 6.792 278.724 6.408 278.508 6.12C278.316 5.832 278.064 5.556 277.752 5.292C277.536 5.1 277.38 4.944 277.284 4.824C277.188 4.68 277.14 4.524 277.14 4.356C277.02 3.468 277.548 3.024 278.724 3.024H287.688C288.24 3.024 288.648 3.144 288.912 3.384C289.2 3.6 289.332 3.9 289.308 4.284C289.308 4.476 289.248 4.668 289.128 4.86C289.032 5.028 288.924 5.184 288.804 5.328C288.54 5.616 288.348 5.892 288.228 6.156C288.108 6.42 288.072 6.768 288.12 7.2L289.056 15.876L294.456 8.136L294.348 7.272C294.3 6.816 294.18 6.444 293.988 6.156C293.796 5.868 293.532 5.592 293.196 5.328C292.956 5.112 292.788 4.944 292.692 4.824C292.596 4.68 292.548 4.524 292.548 4.356C292.428 3.468 292.956 3.024 294.132 3.024H303.132C303.684 3.024 304.104 3.144 304.392 3.384C304.68 3.6 304.812 3.9 304.788 4.284C304.788 4.596 304.62 4.944 304.284 5.328C304.044 5.616 303.864 5.892 303.744 6.156C303.624 6.42 303.576 6.768 303.6 7.2L304.032 15.048L308.892 6.552C309.684 5.184 310.452 4.236 311.196 3.708C311.94 3.156 312.912 2.88 314.112 2.88C315.192 2.88 316.068 3.204 316.74 3.852C317.412 4.5 317.748 5.376 317.748 6.48ZM325.04 7.776C328.088 7.776 330.296 8.268 331.664 9.252C333.032 10.212 333.716 11.448 333.716 12.96C333.716 13.416 333.668 13.836 333.572 14.22C333.212 15.804 332.204 16.944 330.548 17.64C328.916 18.312 326.984 18.648 324.752 18.648C323.624 18.648 322.568 18.576 321.584 18.432C321.56 19.68 321.896 20.556 322.592 21.06C323.288 21.564 324.26 21.816 325.508 21.816C326.084 21.816 326.636 21.756 327.164 21.636C327.692 21.492 328.364 21.288 329.18 21.024C329.852 20.784 330.308 20.664 330.548 20.664C330.812 20.664 330.944 20.82 330.944 21.132C330.968 21.972 330.656 22.86 330.008 23.796C329.36 24.708 328.4 25.488 327.128 26.136C325.856 26.784 324.32 27.108 322.52 27.108C319.856 27.108 317.672 26.436 315.968 25.092C314.264 23.748 313.412 21.792 313.412 19.224C313.412 18.504 313.508 17.664 313.7 16.704C314.3 13.752 315.608 11.532 317.624 10.044C319.664 8.532 322.136 7.776 325.04 7.776ZM321.836 16.272C321.932 16.296 322.064 16.308 322.232 16.308C323.24 16.308 324.008 15.84 324.536 14.904C325.064 13.968 325.316 12.924 325.292 11.772C325.268 11.1 325.076 10.764 324.716 10.764C324.452 10.764 324.14 10.98 323.78 11.412C323.42 11.82 323.06 12.444 322.7 13.284C322.364 14.124 322.076 15.12 321.836 16.272ZM350.44 7.812C352.216 7.812 353.632 8.448 354.688 9.72C355.768 10.992 356.308 12.672 356.308 14.76C356.308 15.84 356.176 16.896 355.912 17.928C355.144 21.024 353.824 23.364 351.952 24.948C350.104 26.532 347.968 27.324 345.544 27.324C344.176 27.324 342.988 27.096 341.98 26.64C340.996 26.16 340.204 25.488 339.604 24.624L338.308 25.74C337.804 26.172 337.312 26.496 336.832 26.712C336.352 26.904 335.8 27 335.176 27H333.592C332.992 27 332.524 26.88 332.188 26.64C331.876 26.376 331.72 26.004 331.72 25.524C331.72 25.308 331.756 25.056 331.828 24.768L337.84 5.22C337.912 5.004 337.948 4.824 337.948 4.68C337.948 4.272 337.696 3.888 337.192 3.528C336.952 3.312 336.784 3.144 336.688 3.024C336.592 2.88 336.58 2.7 336.652 2.484C336.82 1.932 337.576 1.452 338.92 1.044C340.288 0.611999 341.716 0.395999 343.204 0.395999C344.596 0.395999 345.616 0.671999 346.264 1.224C346.936 1.752 347.272 2.472 347.272 3.384C347.272 3.888 347.188 4.392 347.02 4.896L345.508 9.792C346.9 8.472 348.544 7.812 350.44 7.812ZM346.372 17.712C346.852 16.08 347.092 14.76 347.092 13.752C347.092 12.648 346.768 12.096 346.12 12.096C345.544 12.096 345.004 12.396 344.5 12.996L342.16 20.628L341.944 21.312C341.824 21.672 341.764 22.044 341.764 22.428C341.764 23.268 342.16 23.688 342.952 23.688C343.528 23.688 344.08 23.268 344.608 22.428C345.136 21.588 345.724 20.016 346.372 17.712ZM368.091 7.632C370.083 7.632 371.799 7.812 373.239 8.172C374.703 8.532 375.819 9.036 376.587 9.684C377.379 10.332 377.775 11.064 377.775 11.88C377.775 12.72 377.439 13.404 376.767 13.932C376.119 14.46 375.207 14.724 374.031 14.724C372.831 14.724 371.811 14.424 370.971 13.824C370.155 13.224 369.747 12.468 369.747 11.556C369.747 11.244 369.795 10.944 369.891 10.656C369.459 10.536 369.075 10.476 368.739 10.476C368.139 10.476 367.635 10.62 367.227 10.908C366.843 11.196 366.663 11.604 366.687 12.132C366.687 12.756 366.999 13.284 367.623 13.716C368.247 14.148 369.255 14.688 370.647 15.336C371.847 15.864 372.831 16.356 373.599 16.812C374.391 17.244 375.051 17.796 375.579 18.468C376.131 19.14 376.407 19.932 376.407 20.844C376.407 21.036 376.359 21.396 376.263 21.924C375.879 23.532 374.811 24.804 373.059 25.74C371.307 26.676 369.003 27.144 366.147 27.144C362.931 27.144 360.375 26.712 358.479 25.848C356.607 24.984 355.671 23.796 355.671 22.284C355.671 21.252 355.983 20.472 356.607 19.944C357.231 19.416 358.059 19.152 359.091 19.152C360.291 19.152 361.311 19.524 362.151 20.268C363.015 21.012 363.447 21.96 363.447 23.112C363.447 23.424 363.411 23.748 363.339 24.084C363.915 24.228 364.467 24.3 364.995 24.3C365.619 24.3 366.135 24.132 366.543 23.796C366.951 23.46 367.155 22.992 367.155 22.392C367.131 21.84 366.855 21.372 366.327 20.988C365.799 20.58 364.959 20.1 363.807 19.548C362.727 19.044 361.839 18.576 361.143 18.144C360.447 17.688 359.847 17.124 359.343 16.452C358.863 15.78 358.623 14.988 358.623 14.076C358.623 12.108 359.439 10.548 361.071 9.396C362.727 8.22 365.067 7.632 368.091 7.632ZM386.155 7.956C387.547 7.956 388.567 8.22 389.215 8.748C389.863 9.276 390.187 9.996 390.187 10.908C390.187 11.46 390.103 11.988 389.935 12.492L386.623 23.256C386.551 23.544 386.515 23.796 386.515 24.012C386.515 24.324 386.575 24.576 386.695 24.768C386.815 24.936 386.983 25.104 387.199 25.272C387.367 25.44 387.487 25.584 387.559 25.704C387.631 25.8 387.643 25.932 387.595 26.1C387.475 26.412 387.235 26.64 386.875 26.784C386.515 26.928 385.963 27 385.219 27H377.011C376.387 27 375.931 26.904 375.643 26.712C375.355 26.496 375.259 26.22 375.355 25.884C375.451 25.596 375.703 25.344 376.111 25.128C376.471 24.936 376.771 24.708 377.011 24.444C377.251 24.18 377.455 23.76 377.623 23.184L380.755 12.78C380.827 12.564 380.863 12.384 380.863 12.24C380.863 11.976 380.803 11.772 380.683 11.628C380.563 11.46 380.383 11.292 380.143 11.124C379.903 10.932 379.735 10.764 379.639 10.62C379.543 10.476 379.531 10.284 379.603 10.044C379.747 9.492 380.503 9.012 381.871 8.604C383.239 8.172 384.667 7.956 386.155 7.956ZM388.567 -2.14577e-06C389.503 -2.14577e-06 390.283 0.311998 390.907 0.935999C391.531 1.536 391.843 2.28 391.843 3.168C391.843 3.792 391.675 4.404 391.339 5.004C391.027 5.604 390.571 6.096 389.971 6.48C389.395 6.84 388.747 7.02 388.027 7.02C387.115 7.02 386.347 6.72 385.723 6.12C385.123 5.496 384.811 4.728 384.787 3.816C384.787 3.216 384.943 2.628 385.255 2.052C385.567 1.452 386.011 0.959998 386.587 0.575999C387.163 0.191998 387.823 -2.14577e-06 388.567 -2.14577e-06ZM405.062 8.424C405.518 8.424 405.866 8.52 406.106 8.712C406.37 8.904 406.502 9.168 406.502 9.504C406.502 9.6 406.478 9.768 406.43 10.008C406.118 11.064 405.398 11.592 404.27 11.592H402.182L399.482 20.484C399.362 20.844 399.302 21.216 399.302 21.6C399.302 22.032 399.422 22.332 399.662 22.5C399.902 22.668 400.238 22.752 400.67 22.752C401.054 22.752 401.534 22.704 402.11 22.608C402.398 22.536 402.65 22.5 402.866 22.5C403.034 22.5 403.154 22.56 403.226 22.68C403.322 22.776 403.37 22.908 403.37 23.076C403.394 23.556 403.034 24.144 402.29 24.84C401.57 25.512 400.586 26.1 399.338 26.604C398.09 27.084 396.71 27.324 395.198 27.324C393.566 27.324 392.258 26.952 391.274 26.208C390.29 25.464 389.798 24.444 389.798 23.148C389.798 22.548 389.894 21.972 390.086 21.42L392.39 14.292C392.51 13.884 392.57 13.56 392.57 13.32C392.57 12.84 392.45 12.432 392.21 12.096C391.994 11.76 391.682 11.412 391.274 11.052C390.914 10.716 390.662 10.44 390.518 10.224C390.374 9.984 390.338 9.708 390.41 9.396C390.506 9.084 390.71 8.844 391.022 8.676C391.334 8.508 391.826 8.424 392.498 8.424H394.514L396.782 6.156C397.574 5.364 398.294 4.812 398.942 4.5C399.614 4.188 400.478 4.032 401.534 4.032C403.046 4.032 403.802 4.608 403.802 5.76C403.802 6.12 403.754 6.456 403.658 6.768L403.154 8.424H405.062ZM415.743 7.776C418.791 7.776 420.999 8.268 422.367 9.252C423.735 10.212 424.419 11.448 424.419 12.96C424.419 13.416 424.371 13.836 424.275 14.22C423.915 15.804 422.907 16.944 421.251 17.64C419.619 18.312 417.687 18.648 415.455 18.648C414.327 18.648 413.271 18.576 412.287 18.432C412.263 19.68 412.599 20.556 413.295 21.06C413.991 21.564 414.963 21.816 416.211 21.816C416.787 21.816 417.339 21.756 417.867 21.636C418.395 21.492 419.067 21.288 419.883 21.024C420.555 20.784 421.011 20.664 421.251 20.664C421.515 20.664 421.647 20.82 421.647 21.132C421.671 21.972 421.359 22.86 420.711 23.796C420.063 24.708 419.103 25.488 417.831 26.136C416.559 26.784 415.023 27.108 413.223 27.108C410.559 27.108 408.375 26.436 406.671 25.092C404.967 23.748 404.115 21.792 404.115 19.224C404.115 18.504 404.211 17.664 404.403 16.704C405.003 13.752 406.311 11.532 408.327 10.044C410.367 8.532 412.839 7.776 415.743 7.776ZM412.539 16.272C412.635 16.296 412.767 16.308 412.935 16.308C413.943 16.308 414.711 15.84 415.239 14.904C415.767 13.968 416.019 12.924 415.995 11.772C415.971 11.1 415.779 10.764 415.419 10.764C415.155 10.764 414.843 10.98 414.483 11.412C414.123 11.82 413.763 12.444 413.403 13.284C413.067 14.124 412.779 15.12 412.539 16.272Z" fill="url(#paint0_linear)"/>
<defs>
<linearGradient id="paint0_linear" x1="16" y1="-163" x2="433" y2="255" gradientUnits="userSpaceOnUse">
<stop stop-color="#6EFBE2"/>
<stop offset="1" stop-color="white" stop-opacity="0"/>
</linearGradient>
</defs>
</svg>
